<svg id="Layer_1" data-name="Layer 1" xmlns="http://www.w3.org/2000/svg" viewBox="0 0 107.53 347.2">
    <defs>
        <style>
            .cls-1{
                    stroke-dasharray: 1070;
                    stroke-dashoffset: 0;
                    -webkit-animation: dash 10s linear infinite;
                    -o-animation: dash 10s linear infinite;
                    -moz-animation: dash 10s linear infinite;
                    animation: dash 10s linear infinite;
            }

            @-webkit-keyframes dash {
                0, 100% {
                    stroke-dashoffset: 0;
                }
                50% {
                    stroke-dashoffset: 1070;
                }
            }
        </style>
    </defs>
    
    <title>1</title>
    <g stroke-width="5" stroke="hsl(0, 0%, 0%)" fill="none" stroke-linecap="" stroke-linejoin="round" transform="matrix(1,0,0,1,-58,0)">
    <path class="cls-1" d="M92.19,58.11q9.61,20.08,19.21,40.18c5.7,11.91,12,25.32,7.41,38.65-2,5.73-5.45,10.82-8.63,15.93s-6.12,10.42-7.78,16.27a50.6,50.6,0,0,0,12.45,49.15c4.41,4.7,9.32,9,12.86,14.41,6.54,10.08,8.49,22.25,8.83,34.05.73,24.47-5.68,50.82,6,73.7,5.92,11.58,16,19.26,26,27.2,4.68,3.74,8.82,7.81,10.62,13.66.9,2.95,1.6,6,3.2,8.66a24.17,24.17,0,0,0,6.19,6.6,67.27,67.27,0,0,0,7.19,4.58c2.8,1.6,5.32-2.72,2.52-4.32-4.87-2.79-10.29-5.84-12.55-11.3-1.19-2.88-1.7-6-3-8.88a26.46,26.46,0,0,0-4.91-7.3c-4-4.38-9.1-7.69-13.68-11.45a73.89,73.89,0,0,1-13.37-13.6c-15.1-21-9.29-48.26-9.17-72.25.07-12-1.09-24.21-6-35.27a53.33,53.33,0,0,0-10.31-15c-4.38-4.6-9.19-8.85-12.64-14.24a46.24,46.24,0,0,1-6.44-32.74,48.91,48.91,0,0,1,6.27-16.09c3-5.19,6.57-10.12,9.15-15.58a36.51,36.51,0,0,0,3.69-18.75c-.55-6.86-2.78-13.36-5.46-19.65-2.79-6.55-6-12.92-9.08-19.34l-9.6-20.09-4.66-9.74c-1.39-2.91-5.7-.37-4.32,2.52Z" transform="translate(-91.92 -54.3)"/>
    </g>
</svg>