<svg xmlns="http://www.w3.org/2000/svg" viewBox="0 0 321.5 226.83"><defs><style>.cls-1,.cls-2{fill:none;stroke:#fff;stroke-linejoin:round;stroke-width:2px;}.cls-2{stroke-linecap:round;}</style></defs><title>Asset 2</title><g id="Layer_2" data-name="Layer 2"><g id="_ÎÓÈ_1" data-name="—ÎÓÈ_1"><circle class="cls-1" cx="66.08" cy="196.25" r="29.58"/><circle class="cls-1" cx="255.42" cy="196.25" r="29.58"/><line class="cls-2" x1="302.75" y1="143" x2="320.5" y2="143"/><path class="cls-1" d="M253.44,60.17H219.92A5.92,5.92,0,0,0,214,66.08v35.5a5.92,5.92,0,0,0,5.92,5.92H285"/><path class="cls-1" d="M225.83,36.5V24.67a11.83,11.83,0,1,0-23.66,0V36.5"/><polygon class="cls-1" points="143 83.83 119.33 83.83 119.33 60.17 95.67 60.17 95.67 83.83 72 83.83 72 107.5 95.67 107.5 95.67 131.17 119.33 131.17 119.33 107.5 143 107.5 143 83.83"/><path class="cls-1" d="M284.4,202.17h24.27a11.84,11.84,0,0,0,11.83-11.84V140.67a17.76,17.76,0,0,0-7.9-14.77L285,107.5,242.94,44.4a17.78,17.78,0,0,0-14.77-7.9H178.5V12.83A11.83,11.83,0,0,0,166.67,1H12.83A11.83,11.83,0,0,0,1,12.83v177.5a11.84,11.84,0,0,0,11.83,11.84H37.1"/><line class="cls-1" x1="95.07" y1="202.17" x2="226.43" y2="202.17"/></g></g></svg>