<svg xmlns="http://www.w3.org/2000/svg" viewBox="0 0 420.9 385.84"><defs><style>.cls-1{fill:#fff;}</style></defs><title>Asset 3</title><g id="Layer_2" data-name="Layer 2"><g id="Layer_1-2" data-name="Layer 1"><path class="cls-1" d="M324.32,300.7a26.79,26.79,0,1,1-26.76,26.79A26.8,26.8,0,0,1,324.32,300.7Zm0,39.92a13.13,13.13,0,1,0-13.12-13.13A13.13,13.13,0,0,0,324.32,340.62Z"/><path class="cls-1" d="M77,300.7a26.79,26.79,0,1,1-26.76,26.79A26.8,26.8,0,0,1,77,300.7Zm0,39.92A13.13,13.13,0,1,0,63.9,327.49,13.14,13.14,0,0,0,77,340.62Z"/><path class="cls-1" d="M28.25,88H204V83.88a29.6,29.6,0,0,1,59.19,0V88h27.17a28.15,28.15,0,0,1,26.16,17.6l30,73.56A31,31,0,0,0,361,195l39.34,20.32a37.9,37.9,0,0,1,20.57,33.79v63a22.27,22.27,0,0,1-22.23,22.26h-16.5a58.24,58.24,0,0,1-115.7,0H134.87a58.25,58.25,0,0,1-115.74-.24A22.26,22.26,0,0,1,0,312.06V116.31A28.31,28.31,0,0,1,28.25,88Zm221.3-4.13a16,16,0,0,0-31.91,0V88h31.91Zm74.77,288.3a44.69,44.69,0,1,0-44.62-44.69A44.71,44.71,0,0,0,324.32,372.18Zm-247.3,0a44.69,44.69,0,1,0-44.63-44.69A44.71,44.71,0,0,0,77,372.18ZM13.64,312.06a8.6,8.6,0,0,0,5.59,8.05,58.24,58.24,0,0,1,115.64.55h131.6a58.24,58.24,0,0,1,115.7,0h16.5a8.6,8.6,0,0,0,8.58-8.6v-63a24.26,24.26,0,0,0-13.17-21.65l-39.35-20.32a44.65,44.65,0,0,1-20.83-22.78l-30-73.57a14.55,14.55,0,0,0-13.53-9.09H28.25a14.64,14.64,0,0,0-14.61,14.63Z"/><path class="cls-1" d="M216.88,117h59.87a16.75,16.75,0,0,1,15.86,11.38l21.55,63.56a6.82,6.82,0,0,1-6.45,9H216.88a6.82,6.82,0,0,1-6.82-6.83V123.82A6.82,6.82,0,0,1,216.88,117Zm6.82,70.31h74.49l-18.5-54.54a3.11,3.11,0,0,0-2.94-2.11H223.7Z"/><path class="cls-1" d="M58.13,166.17h34v-34a6.83,6.83,0,0,1,6.83-6.83h32.54a6.83,6.83,0,0,1,6.82,6.83v34h34a6.82,6.82,0,0,1,6.82,6.83v32.59a6.82,6.82,0,0,1-6.82,6.83h-34v34a6.82,6.82,0,0,1-6.82,6.83H98.93a6.83,6.83,0,0,1-6.83-6.83v-34h-34a6.82,6.82,0,0,1-6.82-6.83V173A6.82,6.82,0,0,1,58.13,166.17ZM65,198.76h34a6.83,6.83,0,0,1,6.82,6.83v34h18.89v-34a6.83,6.83,0,0,1,6.83-6.83h34V179.83h-34a6.83,6.83,0,0,1-6.83-6.83V139H105.75v34a6.83,6.83,0,0,1-6.82,6.83H65Z"/><path class="cls-1" d="M233.59,43.18a6.83,6.83,0,0,1-6.82-6.83V6.83a6.82,6.82,0,1,1,13.64,0V36.35A6.82,6.82,0,0,1,233.59,43.18Z"/><path class="cls-1" d="M278.3,66.13a6.83,6.83,0,0,1-9.65-9.66L289.49,35.6a6.83,6.83,0,0,1,9.65,9.66Z"/><path class="cls-1" d="M193.71,68.13a6.79,6.79,0,0,1-4.82-2L168.05,45.26a6.82,6.82,0,0,1,9.64-9.66l20.84,20.87a6.83,6.83,0,0,1-4.82,11.66Z"/></g></g></svg>