<svg xmlns="http://www.w3.org/2000/svg" viewBox="0 0 621.54 407.83"><defs><style>.cls-1{fill:#fff;}</style></defs><title>Asset 2</title><g id="Layer_2" data-name="Layer 2"><g id="Layer_1-2" data-name="Layer 1"><path class="cls-1" d="M84.13,0H537.4c46.4,0,84.14,35.6,84.14,79.36V326.17c0,14.95-12.9,27.12-28.75,27.12H543.93c-3.84,30.67-31.56,54.54-65.09,54.54S417.59,384,413.75,353.29H192.83C189,384,161.27,407.83,127.74,407.83S66.49,384,62.65,353.29H28.75C12.9,353.29,0,341.12,0,326.17V79.36C0,35.6,37.74,0,84.13,0ZM15.48,238.1H382.4L342,184H15.48Zm0-158.74v49.15H390.22L306.71,14.6H84.13C46.27,14.6,15.48,43.65,15.48,79.36ZM537.4,14.6H325.53L409,128.51h197V79.36C606.06,43.65,575.26,14.6,537.4,14.6Zm68.66,279.54h-37.8c5.39,9,16.62,21.73,37.8,24.27Zm0-151H419.6l42.71,59.29c16.1,22.36,42.82,35.7,71.47,35.7h72.28ZM478.84,393.23c27.07,0,49.18-20.37,50-45.72a6.88,6.88,0,0,1,0-3c-.86-25.35-23-45.72-50-45.72-27.62,0-50.08,21.19-50.08,47.24S451.22,393.23,478.84,393.23Zm-351.1,0c27.61,0,50.08-21.19,50.08-47.24s-22.47-47.24-50.08-47.24c-27.08,0-49.19,20.37-50,45.72a6.88,6.88,0,0,1,0,3C78.55,372.86,100.66,393.23,127.74,393.23Zm-99-54.54h33.9c3.84-30.67,31.56-54.55,65.09-54.55S189,308,192.83,338.69H413.75c3.84-30.67,31.55-54.55,65.09-54.55s61.25,23.88,65.09,54.55h48.86A13.47,13.47,0,0,0,604,332.87c-34.23-4.21-50.82-29.93-55-44.1a7,7,0,0,1,1.31-6.36,7.91,7.91,0,0,1,6.16-2.87h49.56V252.71H533.78c-33.78,0-65.29-15.74-84.28-42.1l-48.62-67.5H15.48v26.23H346a7.9,7.9,0,0,1,6.33,3.1l51.33,68.76a7,7,0,0,1,.54,7.57,7.81,7.81,0,0,1-6.87,3.94H15.48v73.46C15.48,333.07,21.43,338.69,28.75,338.69Z"/><path class="cls-1" d="M478.84,311.42c20.21,0,36.65,15.5,36.65,34.57s-16.44,34.57-36.65,34.57S442.19,365.05,442.19,346,458.63,311.42,478.84,311.42Zm0,54.54c11.67,0,21.17-9,21.17-20s-9.5-20-21.17-20-21.17,9-21.17,20S467.16,366,478.84,366Z"/><path class="cls-1" d="M127.74,311.42c20.21,0,36.65,15.5,36.65,34.57S148,380.56,127.74,380.56,91.09,365.05,91.09,346,107.53,311.42,127.74,311.42Zm0,54.54c11.67,0,21.17-9,21.17-20s-9.5-20-21.17-20-21.17,9-21.17,20S116.07,366,127.74,366Z"/></g></g></svg>