<svg xmlns="http://www.w3.org/2000/svg" viewBox="0 0 271.58 154.37">
    <defs>
        <style>
        .cls-1{fill:none;stroke:#fff;stroke-linejoin:round;stroke-width:2px;}
         #jalan {
            stroke-dasharray: 800;
            stroke-dashoffset: 0;
            -webkit-animation: dash 4s linear forwards;
            -o-animation: dash 4s linear forwards;
            -moz-animation: dash 4s linear forwards;
            animation: dash 4s linear forwards;
        }

        @-webkit-keyframes dash {
            from {
                stroke-dashoffset: 800;
            }
            to {
                stroke-dashoffset: 0;
            }
        }
        </style>
    </defs>
    
    <title>Asset 3</title>
    <g id="Layer_2" data-name="Layer 2">
        <g id="Stroke_icons" data-name="Stroke icons">
        <circle class="cls-1" cx="220.77" cy="129.93" r="23.44"/>
        <circle class="cls-1" cx="47.88" cy="129.93" r="23.44"/>
        <path id="jalan" class="cls-1" d="M24.44,129.93H1V6.86A5.86,5.86,0,0,1,6.86,1H238.33a23.44,23.44,0,0,1,23.24,20.34l9,67.57v41h-29.3"/>
        <line class="cls-1" x1="200.25" y1="129.93" x2="71.32" y2="129.93"/>
        <line class="cls-1" x1="65.46" y1="24.44" x2="65.46" y2="71.32"/>
        <line class="cls-1" x1="118.21" y1="24.44" x2="118.21" y2="71.32"/>
        <line class="cls-1" x1="170.95" y1="24.44" x2="170.95" y2="71.32"/>
        <polyline class="cls-1" points="223.7 71.33 30.3 71.33 30.3 24.44 264.72 24.44"/>
        <polyline class="cls-1" points="223.7 24.44 223.7 71.33 253 88.91 270.58 88.91"/>
        </g>
    </g>
</svg>