<svg xmlns="http://www.w3.org/2000/svg" viewBox="0 0 137.18 125.99"><defs><style>.cls-1{fill:#fff;}</style></defs><title>Asset 2</title><g id="Layer_2" data-name="Layer 2"><g id="Layer_1-2" data-name="Layer 1"><path class="cls-1" d="M89.18,9.54a1.75,1.75,0,0,1-1.73-1.75v-6a1.73,1.73,0,1,1,3.46,0v6A1.74,1.74,0,0,1,89.18,9.54Z"/><path class="cls-1" d="M71.16,22.16a1.75,1.75,0,0,1-1.73,1.75h-6a1.76,1.76,0,0,1,0-3.51h6A1.75,1.75,0,0,1,71.16,22.16Z"/><path class="cls-1" d="M73.9,12.87a1.7,1.7,0,0,1-1.22-.51L68.47,8.09a1.76,1.76,0,0,1,0-2.48,1.71,1.71,0,0,1,2.44,0l4.21,4.27a1.76,1.76,0,0,1,0,2.48A1.72,1.72,0,0,1,73.9,12.87Z"/><path class="cls-1" d="M114.89,23.91h-6a1.76,1.76,0,0,1,0-3.51h6a1.76,1.76,0,0,1,0,3.51Z"/><path class="cls-1" d="M105.69,12.36a1.71,1.71,0,0,1-2.44,0,1.76,1.76,0,0,1,0-2.48l4.2-4.27a1.73,1.73,0,0,1,2.45,0,1.76,1.76,0,0,1,0,2.48Z"/><path class="cls-1" d="M47.13,55.55h9.56V45.86a1.73,1.73,0,0,1,1.73-1.75H72.35a1.74,1.74,0,0,1,1.73,1.75v9.69h9.56a1.73,1.73,0,0,1,1.73,1.75V71.42a1.73,1.73,0,0,1-1.73,1.75H74.08v9.69a1.75,1.75,0,0,1-1.73,1.76H58.42a1.74,1.74,0,0,1-1.73-1.76V73.17H47.13a1.73,1.73,0,0,1-1.73-1.75V57.3A1.73,1.73,0,0,1,47.13,55.55Zm1.73,14.12h9.56a1.74,1.74,0,0,1,1.73,1.75v9.69H70.62V71.42a1.73,1.73,0,0,1,1.73-1.75h9.56V59.06H72.35a1.74,1.74,0,0,1-1.73-1.76V47.61H60.15V57.3a1.75,1.75,0,0,1-1.73,1.76H48.86Z"/><path class="cls-1" d="M16.42,30.57h60l2-10.64a2.33,2.33,0,0,1,2.27-1.88H97.61a2.31,2.31,0,0,1,2.26,1.88l2.06,10.64h12.42a16.56,16.56,0,0,1,16.42,16.64v40.1h1a5.42,5.42,0,0,1,5.38,5.46v12.45a5.42,5.42,0,0,1-5.38,5.46H121.48a17.11,17.11,0,0,1-34,0H44.66a17.27,17.27,0,0,1-17,15.31,17.27,17.27,0,0,1-17-15.31H2.31A2.32,2.32,0,0,1,0,108.34V47.21A16.55,16.55,0,0,1,16.42,30.57Zm88.05,90.75a12.79,12.79,0,1,0-12.62-12.79A12.71,12.71,0,0,0,104.47,121.32Zm-76.82,0A12.79,12.79,0,1,0,15,108.53,12.72,12.72,0,0,0,27.65,121.32ZM4.61,106h6.06a17.28,17.28,0,0,1,17-14.93,17.3,17.3,0,0,1,17,14.93H87.49a17.12,17.12,0,0,1,34,0H131.8a.77.77,0,0,0,.77-.78V92.77a.77.77,0,0,0-.77-.78h-3.34a2.33,2.33,0,0,1-2.31-2.34V47.21a11.9,11.9,0,0,0-11.8-12H100a2.31,2.31,0,0,1-2.26-1.89L95.71,22.72h-13L80.6,33.36a2.31,2.31,0,0,1-2.27,1.89H16.42a11.9,11.9,0,0,0-11.81,12Z"/></g></g></svg>