<svg xmlns="http://www.w3.org/2000/svg" viewBox="0 0 354.12 87.07"><defs><style>.cls-1{fill:#fff;stroke:#fff;stroke-miterlimit:10;}</style></defs><title>Asset 1</title><g id="Layer_2" data-name="Layer 2"><g id="Stroke_icons" data-name="Stroke icons"><g id="car"><path class="cls-1" d="M18.79,45.75H5.62a2.69,2.69,0,0,1,0-5.38H18.79a11.62,11.62,0,0,0,7.82-3,2.69,2.69,0,1,1,3.61,4A17,17,0,0,1,18.79,45.75Z"/><path class="cls-1" d="M48.49,86.57a19.9,19.9,0,1,1,19.9-19.9A19.92,19.92,0,0,1,48.49,86.57Zm0-34.42A14.53,14.53,0,1,0,63,66.67,14.54,14.54,0,0,0,48.49,52.15Z"/><path class="cls-1" d="M48.49,76.8A10.13,10.13,0,1,1,58.62,66.67,10.14,10.14,0,0,1,48.49,76.8Zm0-14.88a4.75,4.75,0,1,0,4.75,4.75A4.75,4.75,0,0,0,48.49,61.92Z"/><path class="cls-1" d="M296,86.57a19.9,19.9,0,1,1,19.9-19.9A19.92,19.92,0,0,1,296,86.57Zm0-34.42a14.53,14.53,0,1,0,14.52,14.52A14.54,14.54,0,0,0,296,52.15Z"/><path class="cls-1" d="M296,76.8a10.13,10.13,0,1,1,10.13-10.13A10.14,10.14,0,0,1,296,76.8Zm0-14.88a4.75,4.75,0,1,0,4.75,4.75A4.75,4.75,0,0,0,296,61.92Z"/><path class="cls-1" d="M350.93,69.36H322.78a2.69,2.69,0,1,1,0-5.38h25.46V49.54a17.22,17.22,0,0,0-4.88-2.1,2.71,2.71,0,0,1-1.84-1.71L336.8,32.25a3.06,3.06,0,0,0-2.49-1.42h-.16L305,28.3a2.71,2.71,0,0,1-1.89-1l-3-3.87A45,45,0,0,0,264.36,5.88H115.5a45.52,45.52,0,0,0-24,6.8L66.93,27.91a2.7,2.7,0,0,1-1.06.38L16.36,34.75C5.6,40.6,5.33,54.18,6.14,61.82A2.42,2.42,0,0,0,8.56,64h14a2.69,2.69,0,1,1,0,5.38h-14a7.79,7.79,0,0,1-7.77-7C0,55.06-.23,37.22,14.31,29.75a2.92,2.92,0,0,1,.88-.28L64.6,23,88.73,8.11A50.8,50.8,0,0,1,115.5.5H264.36a50.29,50.29,0,0,1,40,19.6L306.64,23l27.9,2.42a8.45,8.45,0,0,1,7.07,4.35,2.5,2.5,0,0,1,.19.41l4.35,12.44c2.49.82,6.22,2.44,7.28,5.08a2.77,2.77,0,0,1,.19,1V66.67A2.69,2.69,0,0,1,350.93,69.36Z"/><path class="cls-1" d="M268.74,73.17H77a2.69,2.69,0,0,1,0-5.38H268.74a2.69,2.69,0,0,1,0,5.38Z"/><path class="cls-1" d="M265.72,30.37H89.55a2.69,2.69,0,1,1,0-5.38H265.72a10.42,10.42,0,0,0,10.41-10.41,2.69,2.69,0,1,1,5.38,0A15.81,15.81,0,0,1,265.72,30.37Z"/><path class="cls-1" d="M148.49,28.65a2.84,2.84,0,0,1-.81-.12,2.69,2.69,0,0,1-1.76-3.37l4.83-15.48a2.69,2.69,0,0,1,5.14,1.61l-4.84,15.47A2.69,2.69,0,0,1,148.49,28.65Z"/><path class="cls-1" d="M137.83,28.65a2.84,2.84,0,0,1-.81-.12,2.69,2.69,0,0,1-1.76-3.37l4.83-15.48a2.69,2.69,0,0,1,5.14,1.61l-4.84,15.47A2.69,2.69,0,0,1,137.83,28.65Z"/><path class="cls-1" d="M224.39,28.65a2.84,2.84,0,0,1-.81-.12,2.68,2.68,0,0,1-1.76-3.37l4.83-15.48a2.69,2.69,0,0,1,5.14,1.61L227,26.76A2.69,2.69,0,0,1,224.39,28.65Z"/><path class="cls-1" d="M213.72,28.65a2.82,2.82,0,0,1-.8-.12,2.69,2.69,0,0,1-1.77-3.37L216,9.68a2.69,2.69,0,0,1,5.13,1.61l-4.83,15.47A2.69,2.69,0,0,1,213.72,28.65Z"/><path class="cls-1" d="M344.06,47.53h-5.32A9.65,9.65,0,0,1,330,42l-.7-1.49a2.69,2.69,0,1,1,4.87-2.28l.7,1.5a4.26,4.26,0,0,0,3.85,2.44h5.32a2.69,2.69,0,0,1,0,5.38Z"/></g></g></g></svg>