<svg xmlns="http://www.w3.org/2000/svg" viewBox="0 0 159.4 66.61"><defs><style>.cls-1{fill:none;stroke:#fff;stroke-linecap:round;stroke-linejoin:round;stroke-width:3.85px;}</style></defs><title>Asset 4</title><g id="Layer_2" data-name="Layer 2"><g id="elements"><path class="cls-1" d="M40.34,56.61a6.94,6.94,0,0,1-11.93-4.77v0a6.94,6.94,0,1,1,13.87,0c0,.12,0,.23,0,.35A7,7,0,0,1,40.34,56.61Z"/><path class="cls-1" d="M44.62,60.73a12.88,12.88,0,0,1-22.15-8.86v0a12.88,12.88,0,1,1,25.75,0c0,.22,0,.43,0,.64A12.82,12.82,0,0,1,44.62,60.73Z"/><path class="cls-1" d="M130.22,56.61a6.91,6.91,0,0,1-10.16-.2,6.81,6.81,0,0,1-1.76-4.57v0a6.93,6.93,0,1,1,13.86,0c0,.12,0,.23,0,.35A6.84,6.84,0,0,1,130.22,56.61Z"/><path class="cls-1" d="M134.51,60.73a12.88,12.88,0,0,1-22.16-8.86v0a12.88,12.88,0,1,1,25.76,0c0,.22,0,.43,0,.64A12.92,12.92,0,0,1,134.51,60.73Z"/><line class="cls-1" x1="48.22" y1="51.81" x2="112.22" y2="51.58"/><path class="cls-1" d="M138.08,52.45s17.16.86,18.19-6.12c.94-6.4,2.35-13.88-.4-15.36s-2.28-6.63-7.51-8.18S112.55,18,112.55,18,99.33,3.66,75.28,2.41c-21.78-1.13-64.84-.47-62.36,4S8,11.13,6.48,19.78,1.47,27,2,35.67,1.62,47.86,7.76,48.54l14.87,1.23"/><path class="cls-1" d="M17,49.32c1.07-9.55,2.41-15.57,19.17-16.07s17.5,17.27,17.5,17.27"/><path class="cls-1" d="M143.57,51.58s-.74-17.71-17.5-17.21-18.11,6.49-19.18,16"/><path class="cls-1" d="M45.7,2.68c-.33,0-8.65,18.5-8.65,18.5V32.85"/><path class="cls-1" d="M156.43,32.07,138.3,27.34l-.74-2,14.8.4"/><path class="cls-1" d="M7.08,17.46S24.72,16,17,20.85,5.19,24.42,5.19,24.42"/><polyline class="cls-1" points="112.55 18.03 26.73 14.1 33.63 2.63"/><line class="cls-1" x1="69.64" y1="2.68" x2="74.37" y2="50.78"/></g></g></svg>