<svg xmlns="http://www.w3.org/2000/svg" viewBox="0 0 242.98 100.33"><defs><style>.cls-1{fill:none;stroke:#fff;stroke-linecap:round;stroke-linejoin:round;stroke-width:3.85px;}</style></defs><title>Asset 3</title><g id="Layer_2" data-name="Layer 2"><g id="elements"><path class="cls-1" d="M61,86a10.66,10.66,0,0,1-18.34-7.33v0a10.66,10.66,0,1,1,21.32,0c0,.17,0,.35,0,.52A10.61,10.61,0,0,1,61,86Z"/><path class="cls-1" d="M67.56,92.32A19.8,19.8,0,0,1,33.5,78.7v0a19.8,19.8,0,1,1,39.6,0c0,.33,0,.66,0,1A19.73,19.73,0,0,1,67.56,92.32Z"/><path class="cls-1" d="M199.16,86a10.65,10.65,0,0,1-18.33-7.33v0a10.66,10.66,0,1,1,21.31,0c0,.17,0,.35,0,.52A10.56,10.56,0,0,1,199.16,86Z"/><path class="cls-1" d="M205.74,92.32A19.8,19.8,0,0,1,171.68,78.7v0a19.8,19.8,0,1,1,39.6,0c0,.33,0,.66-.05,1A19.73,19.73,0,0,1,205.74,92.32Z"/><line class="cls-1" x1="73.1" y1="78.62" x2="171.48" y2="78.26"/><path class="cls-1" d="M211.23,79.6s26.39,1.32,28-9.42c1.45-9.83,3.61-21.33-.62-23.6S235.08,36.38,227,34s-55-7.32-55-7.32-20.33-22.1-57.31-24C81.22.93,15,2,18.82,8.75s-7.63,7.32-9.89,20.62S1.23,40.4,2,53.8s-.55,18.75,8.89,19.79l22.87,1.89"/><path class="cls-1" d="M25.11,74.79c1.65-14.69,3.71-23.94,29.48-24.7s26.9,26.55,26.9,26.55"/><path class="cls-1" d="M219.67,78.26S218.54,51,192.77,51.8s-27.83,10-29.48,24.61"/><path class="cls-1" d="M69.22,3.08c-.51,0-13.3,28.45-13.3,28.45V49.47"/><path class="cls-1" d="M239.45,48.26C237.8,47.85,211.58,41,211.58,41l-1.14-3,22.76.61"/><path class="cls-1" d="M9.84,25.8S37,23.6,25.11,31,7,36.51,7,36.51"/><polyline class="cls-1" points="172 26.69 40.05 20.64 50.67 3.01"/><line class="cls-1" x1="106.02" y1="3.08" x2="113.29" y2="77.03"/></g></g></svg>