<svg xmlns="http://www.w3.org/2000/svg" viewBox="0 0 572.76 339.4"><defs><style>.cls-1{fill:#fff;}</style></defs><title>Asset 2</title><g id="Layer_2" data-name="Layer 2"><g id="Layer_1-2" data-name="Layer 1"><path class="cls-1" d="M466,236.49c21,0,38.13,16.48,38.13,36.74S487,310,466,310s-38.12-16.48-38.12-36.74S445,236.49,466,236.49Zm0,58.87c12.67,0,23-9.93,23-22.13s-10.3-22.13-23-22.13-23,9.93-23,22.13S453.32,295.36,466,295.36Z"/><path class="cls-1" d="M116.55,236.49c21,0,38.13,16.48,38.13,36.74S137.57,310,116.55,310s-38.13-16.48-38.13-36.74S95.53,236.49,116.55,236.49Zm0,58.87c12.66,0,23-9.93,23-22.13s-10.31-22.13-23-22.13-23,9.93-23,22.13S103.89,295.36,116.55,295.36Z"/><path class="cls-1" d="M2.62,114.91a7.89,7.89,0,0,1-.05-.84C2.57,76.52,20.94,46.53,36.34,28,51.12,10.21,73.45,0,97.61,0H334.16c31.25,0,60.62,14.64,78.56,39.16l47.2,64.46c21.94,3.27,45.05,11.66,69,25.09a87.47,87.47,0,0,1,20.92,16.36,6.55,6.55,0,0,1,.63.66,83.36,83.36,0,0,1,22.32,56.35v53.37c0,15.83-13.36,28.7-29.78,28.7h-9.27C528.29,315.45,500,339.4,466,339.4c-35.31,0-64.46-25.81-68.25-58.87H184.8c-3.78,33.06-32.94,58.87-68.25,58.87-34,0-62.31-23.95-67.73-55.25H37.93C17,284.15,0,267.75,0,247.6V125.48A22.66,22.66,0,0,1,2.62,114.91ZM48.17,37.12C35.89,51.9,21.54,74.65,18.37,102.76a24.86,24.86,0,0,1,5.95-.72H142.61V14.61h-45C78.08,14.61,60.06,22.81,48.17,37.12ZM289.23,102,268.57,14.61H157.76V102ZM400.34,47.58c-15.11-20.65-39.85-33-66.18-33H284.11L304.77,102H439.36l.87,0ZM541,157.58H498.39c5.73,13.78,20.64,34.39,58.78,36.93A69.26,69.26,0,0,0,541,157.58ZM466,324.8c29.52,0,53.52-23.13,53.52-51.57s-24-51.57-53.52-51.57-53.52,23.13-53.52,51.57S436.47,324.8,466,324.8Zm-349.43,0c29.51,0,53.52-23.13,53.52-51.57s-24-51.57-53.52-51.57S63,244.79,63,273.23,87,324.8,116.55,324.8ZM15.16,247.6c0,12.1,10.21,21.94,22.77,21.94H48c2-34.77,32-62.48,68.57-62.48,35.31,0,64.47,25.81,68.25,58.87H397.73c3.79-33.06,32.94-58.87,68.25-58.87,36.59,0,66.58,27.71,68.57,62.48H543a14.38,14.38,0,0,0,14.62-14.09v-46.3c-51.43-2.86-69-34.5-74.21-48.48a12.78,12.78,0,0,1,1.69-12A14,14,0,0,1,496.37,143H524c-.91-.56-1.82-1.11-2.76-1.64-20.07-11.26-50.56-24.68-81.91-24.68h-415a9,9,0,0,0-9.16,8.83Z"/><path class="cls-1" d="M313.54,156.12h29.87a7.31,7.31,0,1,1,0,14.6H313.54a7.31,7.31,0,1,1,0-14.6Z"/><path class="cls-1" d="M156.94,156.12h29.87a7.31,7.31,0,1,1,0,14.6H156.94a7.31,7.31,0,1,1,0-14.6Z"/></g></g></svg>