<svg xmlns="http://www.w3.org/2000/svg" viewBox="0 0 238 238"><defs><style>.cls-1,.cls-2,.cls-3,.cls-4{fill:none;stroke:#fff;}.cls-1,.cls-2{stroke-miterlimit:10;}.cls-2,.cls-3,.cls-4{stroke-width:2px;}.cls-3{stroke-linecap:round;}.cls-3,.cls-4{stroke-linejoin:round;}</style></defs><title>Asset 3</title><g id="Layer_2" data-name="Layer 2"><g id="Stroke_icons" data-name="Stroke icons"><rect class="cls-1" x="0.5" y="0.5" width="237" height="237"/><line class="cls-2" x1="173.31" y1="212.81" x2="64.69" y2="212.81"/><line class="cls-2" x1="212.81" y1="173.31" x2="232.56" y2="173.31"/><line class="cls-2" x1="5.44" y1="178.25" x2="30.13" y2="178.25"/><polyline class="cls-3" points="25.19 212.81 5.44 212.81 5.44 94.31 133.81 94.31 133.81 212.81"/><line class="cls-2" x1="114.06" y1="40" x2="114.06" y2="74.56"/><line class="cls-2" x1="84.44" y1="40" x2="84.44" y2="74.56"/><line class="cls-2" x1="54.81" y1="44.94" x2="54.81" y2="79.5"/><line class="cls-2" x1="25.19" y1="40" x2="25.19" y2="74.56"/><circle class="cls-2" cx="190.59" cy="212.81" r="19.75"/><circle class="cls-2" cx="44.94" cy="212.81" r="19.75"/><path class="cls-2" d="M207.87,212.81h24.69v-49a9.88,9.88,0,0,0-4.39-8.22l-10.42-6.95L195.69,100.1a9.87,9.87,0,0,0-9-5.79H133.81"/><polyline class="cls-4" points="217.75 148.63 173.31 148.63 173.31 114.06 202.94 114.06"/><path class="cls-2" d="M173.31,94.31H153.56V84.44a9.88,9.88,0,1,1,19.75,0Z"/><line class="cls-2" x1="0.5" y1="44.94" x2="138.75" y2="44.94"/><line class="cls-2" x1="0.5" y1="74.56" x2="138.75" y2="74.56"/><circle class="cls-2" cx="69.63" cy="138.75" r="9.88"/><circle class="cls-2" cx="69.63" cy="138.75" r="24.69"/><line class="cls-2" x1="30.13" y1="114.06" x2="69.63" y2="114.06"/></g></g></svg>