<svg xmlns="http://www.w3.org/2000/svg" viewBox="0 0 237 237"><defs><style>.cls-1,.cls-2,.cls-3,.cls-4{fill:none;}.cls-2,.cls-3,.cls-4{stroke:#fff;stroke-width:2px;}.cls-2{stroke-miterlimit:10;}.cls-3{stroke-linecap:round;}.cls-3,.cls-4{stroke-linejoin:round;}
 #jalan {
            stroke-dasharray: 800;
            stroke-dashoffset: 0;
            -webkit-animation: dash 4s linear forwards;
            -o-animation: dash 4s linear forwards;
            -moz-animation: dash 4s linear forwards;
            animation: dash 4s linear forwards;
        }

        @-webkit-keyframes dash {
            from {
                stroke-dashoffset: 800;
            }
            to {
                stroke-dashoffset: 0;
            }
        }
</style></defs><title>Asset 2</title><g id="Layer_2" data-name="Layer 2"><g id="Stroke_icons" data-name="Stroke icons"><rect class="cls-1" width="237" height="237"/><line class="cls-2" x1="172.81" y1="212.31" x2="64.19" y2="212.31"/><line class="cls-2" x1="212.31" y1="172.81" x2="232.06" y2="172.81"/><line class="cls-2" x1="4.94" y1="177.75" x2="29.63" y2="177.75"/><polyline class="cls-3" points="24.69 212.31 4.94 212.31 4.94 93.81 133.31 93.81 133.31 212.31"/><line class="cls-2" x1="113.56" y1="39.5" x2="113.56" y2="74.06"/><line class="cls-2" x1="83.94" y1="39.5" x2="83.94" y2="74.06"/><line class="cls-2" x1="54.31" y1="44.44" x2="54.31" y2="79"/><line class="cls-2" x1="24.69" y1="39.5" x2="24.69" y2="74.06"/><circle class="cls-2" cx="190.09" cy="212.31" r="19.75"/><circle class="cls-2" cx="44.44" cy="212.31" r="19.75"/><path id="jalan" class="cls-2" d="M207.37,212.31h24.69v-49a9.88,9.88,0,0,0-4.39-8.22l-10.42-6.95L195.19,99.6a9.87,9.87,0,0,0-9-5.79H133.31"/><polyline class="cls-4" points="217.25 148.13 172.81 148.13 172.81 113.56 202.44 113.56"/><path class="cls-2" d="M172.81,93.81H153.06V83.94a9.88,9.88,0,1,1,19.75,0Z"/><line class="cls-2" y1="44.44" x2="138.25" y2="44.44"/><line class="cls-2" y1="74.06" x2="138.25" y2="74.06"/><circle class="cls-2" cx="69.13" cy="138.25" r="9.88"/><circle class="cls-2" cx="69.13" cy="138.25" r="24.69"/><line class="cls-2" x1="29.63" y1="113.56" x2="69.13" y2="113.56"/></g></g></svg>