<svg xmlns="http://www.w3.org/2000/svg" viewBox="0 0 128.76 123.94"><defs><style>.cls-1{fill:#fff;}</style></defs><title>Asset 2</title><g id="Layer_2" data-name="Layer 2"><g id="Layer_1-2" data-name="Layer 1"><path class="cls-1" d="M114.88,65H93.41a1.52,1.52,0,0,1-1.49-1.53V39.09a1.52,1.52,0,0,1,1.49-1.54h12.47a1.5,1.5,0,0,1,1.39,1l9,24.35a1.56,1.56,0,0,1-.16,1.42A1.5,1.5,0,0,1,114.88,65Zm-10-24.35h-10V61.9h17.82Z"/><path class="cls-1" d="M1.49,26.47H61.21A1.51,1.51,0,0,1,62.7,28V83.27H77a3.1,3.1,0,0,0,3-3.14V33.28a6.14,6.14,0,0,1,6-6.22h2.72V20.21a1.52,1.52,0,0,1,1.49-1.53h13.85a1.52,1.52,0,0,1,1.49,1.53v6.85h5.42a6,6,0,0,1,5.62,4l11.67,30.84a6.44,6.44,0,0,1,.41,2.25v36.73a6.14,6.14,0,0,1-6,6.22h-6.51c-.77,9.42-8.38,16.88-17.73,16.88s-16.95-7.46-17.72-16.88H49.39c-.77,9.42-8.38,16.88-17.73,16.88s-16.95-7.46-17.72-16.88H6a6.14,6.14,0,0,1-6-6.22V28A1.51,1.51,0,0,1,1.49,26.47ZM31.66,87.11a17.3,17.3,0,0,1,6.71,1.37V80.62H25v7.86A17.25,17.25,0,0,1,31.66,87.11Zm6.71-24H25V77.55H38.37ZM25,60.05H38.37V45.62H25Zm0-30.52v13H38.37v-13Zm100.82,71.31V64.11a3.2,3.2,0,0,0-.21-1.14L113.9,32.13a3,3,0,0,0-2.84-2h-6.91a1.52,1.52,0,0,1-1.49-1.53V21.75H91.79V28.6a1.52,1.52,0,0,1-1.49,1.53H86.09a3.1,3.1,0,0,0-3,3.15V80.13a6.13,6.13,0,0,1-6,6.21H61.21a1.52,1.52,0,0,1-1.49-1.53V29.53H41.35V90.09a18.45,18.45,0,0,1,8,13.9H80.77c.77-9.43,8.38-16.88,17.72-16.88s17,7.45,17.73,16.88h6.51A3.1,3.1,0,0,0,125.78,100.84Zm-27.29,20a15.36,15.36,0,1,0-14.9-15.35A15.15,15.15,0,0,0,98.49,120.87Zm-66.83,0a15.36,15.36,0,0,0,0-30.7,15.36,15.36,0,0,0,0,30.7ZM3,100.84A3.1,3.1,0,0,0,6,104h7.91a18.39,18.39,0,0,1,8-13.9V29.53H3Z"/><path class="cls-1" d="M98.49,95.55a10,10,0,1,1-9.68,10A9.84,9.84,0,0,1,98.49,95.55Zm0,16.88a6.91,6.91,0,1,0-6.7-6.91A6.82,6.82,0,0,0,98.49,112.43Z"/><path class="cls-1" d="M31.66,95.55a10,10,0,0,1,0,20,10,10,0,0,1,0-20Zm0,16.88a6.91,6.91,0,1,0-6.7-6.91A6.82,6.82,0,0,0,31.66,112.43Z"/><path class="cls-1" d="M69.64,11.37H50.73v6.76a1.52,1.52,0,0,1-1.49,1.54h-34a1.51,1.51,0,0,1-1.48-1.54V1.53A1.51,1.51,0,0,1,15.27,0h34a1.52,1.52,0,0,1,1.49,1.53V8.3H69.64a1.54,1.54,0,0,1,0,3.07ZM47.75,3.07h-31V16.6h31Z"/></g></g></svg>