<svg id="Layer_3" data-name="Layer 3" xmlns="http://www.w3.org/2000/svg" viewBox="0 0 781.7 1509.6">
    <defs>
        <style>
            .cls-1,.cls-2,.cls-3,.cls-4{fill:none;stroke-linejoin:bevel;stroke-width:10px;}.cls-1,.cls-3{stroke:#fbb040;}.cls-1,.cls-4{stroke-linecap:round;}.cls-2,.cls-4{stroke:#fff200;}
        </style>
    </defs>
    <title>peta</title>
    <path class="cls-1 fatmawati" d="M209.16,1326.64c1.94,10.32,2.15,26.33,3,42.33,1.12,21.35,5.61,65.15,1.12,79.76s-13.48,43.81-15.73,67.39-4.49,64-4.49,64" transform="translate(-188.06 -75.56)"/>
    <path class="cls-2 polim" d="M222.06,1100.52c-.15,15.6-1,30.84-3.23,42.67-6.67,36-12.29,143.78-12.29,143.78s-4.49,23.59,0,31.46a27.41,27.41,0,0,1,2.62,8.21" transform="translate(-188.06 -75.56)"/>
    <path class="cls-3" d="M228.71,1000c-4.25,6.31-10.57,17.37-9.81,26.41s3.47,42.35,3.16,74.15" transform="translate(-188.06 -75.56)"/>
    <!-- <path class="cls-2" d="M350.32,907.3C296.4,950,232.38,994.92,232.38,994.92s-1.59,2-3.67,5" transform="translate(-188.06 -75.56)"/>
    <path class="cls-3" d="M449.17,744.42s-6.74,56.17-16.85,75.26-28.08,44.93-82,87.62" transform="translate(-188.06 -75.56)"/>
    <line class="cls-2" x1="261.11" y1="472.79" x2="261.11" y2="668.87"/>
    <line class="cls-3" x1="261.11" y1="384.67" x2="261.11" y2="472.79"/>
    <path class="cls-4" d="M429.84,419.6c2,9.2,6.6,30.15,9.22,32.77a85.37,85.37,0,0,0,10.11,7.86" transform="translate(-188.06 -75.56)"/>
    <path class="cls-1" d="M372.79,187.27s46,175.23,56.16,228c0,0,.34,1.67.89,4.3" transform="translate(-188.06 -75.56)"/>
    <path class="cls-1" d="M951.28,1160s6.74-47.18,7.87-68.52S935.56,989.3,931.06,952.23c-2-16.62-4-50.61-5.73-84.69" transform="translate(-188.06 -75.56)"/>
    <path class="cls-4" d="M642.38,1126.34s106.71-1.12,141.53,0,59.54,3.37,82,13.48S946.79,1160,946.79,1160h4.49" transform="translate(-188.06 -75.56)"/>
    <path class="cls-2" d="M204.29,532.87c-5,4.49,0,15,0,15,5.62,15.72,4.5,55,4.5,91,0,32.94,14.14,81,26.88,108.65" transform="translate(-188.06 -75.56)"/>
    <path class="cls-3" d="M328.6,455.49c-13,2.49-29,13-29,13l-45.93,31.45s-44.43,28.46-49.43,32.95" transform="translate(-188.06 -75.56)"/>
    <path class="cls-2" d="M343.63,452.76c-6.64,1.18-12.07,2.16-15,2.73" transform="translate(-188.06 -75.56)"/>
    <path class="cls-3" d="M406.17,441.76c-2.16.52-3.68.75-3.68.75s-36.34,6.25-58.86,10.25" transform="translate(-188.06 -75.56)"/>
    <path class="cls-4" d="M430.57,423s-8.11,10-13.1,14c-3,2.44-7.94,3.95-11.3,4.75" transform="translate(-188.06 -75.56)"/>
    <path class="cls-1" d="M736.73,719.34s65.16-45.69,71.9-50.93,26.21-13.48,38.94-14.23,67.39-6,72.64-3.74l6,3" transform="translate(-188.06 -75.56)"/>
    <path class="cls-4" d="M694.8,672.16s19.47,30.7,41.93,47.18" transform="translate(-188.06 -75.56)"/>
    <line class="cls-1" x1="445.33" y1="479.78" x2="506.74" y2="596.6"/>
    <path class="cls-1" d="M524.06,80.56l29.2,128.8a203.32,203.32,0,0,0,5.25,35.95c4.49,18,56.16,229.15,56.16,229.15" transform="translate(-188.06 -75.56)"/>
    <path class="cls-4" d="M496.35,762.39S502,774.6,511,791.52s13.11,98.93,13.11,98.93S537.6,920.78,540,944.37s9.14,69.64-7.7,87.62S502,1048.83,502,1048.83l-12.46,18.79" transform="translate(-188.06 -75.56)"/>
    <path class="cls-3" d="M235.67,747.48c1.17,2.53,2.32,4.89,3.45,7,13.48,25.84,53.91,71.89,64,84.25s133.68,192.08,133.68,192.08l12.35,11.23,94.07,59.54,62.07,15.73,37.07,9" transform="translate(-188.06 -75.56)"/>
    <path class="cls-4" d="M925.33,867.54c-2.11-41.94-3.76-84-4.38-93.91-5.61-23.59-4.49-32.58,0-65.15s13.48-84.25,12.36-92.11,7.86-107.84,13.48-126.94,18-75.26,18-75.26" transform="translate(-188.06 -75.56)"/>
    <polyline class="cls-2" points="426.61 398.9 435.6 430.35 445.33 479.78"/> -->
</svg>