<svg xmlns="http://www.w3.org/2000/svg" viewBox="0 0 549.44 351.46"><defs><style>.cls-1{fill:#fff;}</style></defs><title>Asset 3</title><g id="Layer_2" data-name="Layer 2"><g id="Layer_1-2" data-name="Layer 1"><path class="cls-1" d="M428.64,254.42a34.69,34.69,0,1,1-34.71,34.68A34.74,34.74,0,0,1,428.64,254.42Zm0,55.35A20.67,20.67,0,1,0,408,289.1,20.7,20.7,0,0,0,428.64,309.77Z"/><path class="cls-1" d="M107.63,254.42A34.69,34.69,0,1,1,72.91,289.1,34.74,34.74,0,0,1,107.63,254.42Zm0,55.35A20.67,20.67,0,1,0,87,289.1,20.7,20.7,0,0,0,107.63,309.77Z"/><path class="cls-1" d="M16.44,158.85A59.52,59.52,0,0,1,60,140.1h25c4.83-12.89,37.25-92.53,101.34-92.53h42.47l4.71-41.35a7,7,0,0,1,7-6.22H267a7,7,0,0,1,7,6.22l4.71,41.35h50c66.24,0,98.65,85.07,101.73,93.6,29.07,3.85,57.61,17.51,77.69,29.26a83.7,83.7,0,0,1,41.39,71.91V273a23.12,23.12,0,0,1-23.1,23.09h-35.7a62.41,62.41,0,0,1-124,0h-197a62.41,62.41,0,0,1-124,0H32A28.32,28.32,0,0,1,3.71,269.36l-3.62-66A59.39,59.39,0,0,1,16.44,158.85Zm83.78-18.75H250.5V61.59H186.41C137.58,61.59,108.53,120.5,100.22,140.1ZM260.73,14H246.82L243,47.57h21.55Zm67.9,47.57H264.54V140.1H414.82C406.51,120.5,377.46,61.59,328.63,61.59ZM530.94,218H493.33a2.29,2.29,0,0,0-2.15,1.45,1.92,1.92,0,0,0,.37,2.25c7,7.34,20.17,16,43.77,17.32A68.65,68.65,0,0,0,530.94,218Zm-102.3,119.4a48.34,48.34,0,1,0-48.38-48.34A48.42,48.42,0,0,0,428.64,337.44Zm-321,0A48.34,48.34,0,1,0,59.25,289.1,48.41,48.41,0,0,0,107.63,337.44ZM14.11,202.61l3.61,66A14.3,14.3,0,0,0,32,282.09H45.62a62.41,62.41,0,0,1,124,0h197a62.41,62.41,0,0,1,124,0h35.7a9.08,9.08,0,0,0,9.07-9.07V253.11c-28.7-1.44-45.14-12.39-54-21.69A15.9,15.9,0,0,1,478.28,214,16.36,16.36,0,0,1,493.33,204h30.39A69.62,69.62,0,0,0,501,182.53c-22.16-13-55.07-28.4-86.1-28.4H60a46,46,0,0,0-45.93,48.48Z"/><path class="cls-1" d="M234.28,171.24h32a7,7,0,0,1,0,14h-32a7,7,0,1,1,0-14Z"/></g></g></svg>