<svg id="Layer_1" data-name="Layer 1" xmlns="http://www.w3.org/2000/svg" viewBox="0 0 367.56 302.16"><title>sepeda3</title><path d="M1035.15,2080.32a73.17,73.17,0,0,0-34.45,8.58,33.57,33.57,0,0,0,7-7.89,38.17,38.17,0,0,0-5.11-52.15l-43.09-46.3c-.16-.16-.32-.32-.49-.46a38.55,38.55,0,0,0-36.22-7.6,41.51,41.51,0,0,0,.53-6.64A42.35,42.35,0,1,0,881,2010.21c1.45,0,2.89-.08,4.3-.22l-7.8,9.48a21.13,21.13,0,0,1-14.13,7.56l-39.23,7A17.16,17.16,0,0,0,809,2051.13v11.38a6,6,0,0,0,6,6h36.28l-8.65,17.2a73.8,73.8,0,1,0,10.71,5.4l1.33-2.63h52l-5.51,6.19a25.82,25.82,0,0,0-2.34,33L935,2194.33a4.89,4.89,0,0,0,.46.72,21.49,21.49,0,0,0,17.3,8.75,22.4,22.4,0,0,0,11.79-3.41,21.72,21.72,0,0,0,7.66-8.18,73.67,73.67,0,1,0,63-111.89ZM876.62,2154a61.74,61.74,0,1,1-39.46-57.51l-27.57,54.82a6,6,0,0,0,2.66,8,5.91,5.91,0,0,0,2.69.64,6,6,0,0,0,5.37-3.3l27.56-54.81A61.68,61.68,0,0,1,876.62,2154Zm85.28-7.82-11.77-28.82,35.5-19.31c1.19-.53,2.55-1.17,4-1.92A73.65,73.65,0,0,0,961.9,2146.17Zm-80.91-148a30.37,30.37,0,1,1,25.18-13.42c-.64.67-1.26,1.35-1.86,2.08l-2.49,3A30.25,30.25,0,0,1,881,1998.21Zm-20.34,78.27,4-8h11.1a34.54,34.54,0,0,0,26.1-11.91l19-21.93L938,2053.2l-20.74,23.28ZM958,2190.34a9.65,9.65,0,0,1-12.67-2.15L909.1,2121.6a5.88,5.88,0,0,0-.46-.72,13.93,13.93,0,0,1,1.25-18.07l40.71-45.69a6,6,0,0,0-.08-8.07l-25.34-27.44a6.41,6.41,0,0,0-4.5-1.93,6.05,6.05,0,0,0-4.44,2.06l-23.44,27a22.59,22.59,0,0,1-17,7.77H821v-5.38a5.29,5.29,0,0,1,4.93-5.19l39.23-7a32.78,32.78,0,0,0,21.65-11.8L910.67,1998a42.49,42.49,0,0,0,4.74-5.55A26.46,26.46,0,0,1,951,1991l43.07,46.28a5.33,5.33,0,0,0,.49.46,26.27,26.27,0,0,1,3.5,36.18,5.27,5.27,0,0,0-.43.62c-2.59,4.37-9,9.08-17,12.61-.16.07-.31.15-.46.23l-36.36,19.77a10.47,10.47,0,0,0-5.33,5.75,10.28,10.28,0,0,0,.15,7.9l23.34,57.13A9.8,9.8,0,0,1,958,2190.34Zm77.2,25.33a61.68,61.68,0,1,1,61.68-61.68A61.75,61.75,0,0,1,1035.15,2215.67Z" transform="translate(-741.27 -1925.51)"/><path d="M1052.52,2148H1030l16.41-29.53a6,6,0,1,0-10.49-5.82l-21.36,38.44a6,6,0,0,0,5.24,8.91h22.56l-16.41,29.54a6,6,0,1,0,10.49,5.82l21.36-38.44a6,6,0,0,0-5.25-8.92Z" transform="translate(-741.27 -1925.51)"/><path d="M960.11,1947.55h142.72a6,6,0,0,0,0-12H960.11a6,6,0,1,0,0,12Z" transform="translate(-741.27 -1925.51)"/><path d="M1102.83,1978.3h-100a6,6,0,1,0,0,12h100a6,6,0,0,0,0-12Z" transform="translate(-741.27 -1925.51)"/><path d="M1102.83,2021.05h-57.22a6,6,0,0,0,0,12h57.22a6,6,0,0,0,0-12Z" transform="translate(-741.27 -1925.51)"/></svg>