<svg xmlns="http://www.w3.org/2000/svg" viewBox="0 0 694.99 636"><defs><style>.cls-1{fill:#fff;}</style></defs><title>Asset 1</title><g id="Layer_2" data-name="Layer 2"><g id="Layer_1-2" data-name="Layer 1"><path class="cls-1" d="M133,398.39A142.77,142.77,0,0,1,214,423l56.4-50.38-17.67-37.12-31.55-5.29c-13.43-2.23-25-10.15-31-21.1a35.28,35.28,0,0,1,.45-34.85l88.82-153.53c6.36-10.93,18.24-18.59,31.77-20.49a47.69,47.69,0,0,1,7.62-.52,58.4,58.4,0,0,1-13.08-36.53C305.73,28.36,337.48,0,376.49,0s70.79,28.36,70.79,63.23-31.75,63.2-70.79,63.2a79.84,79.84,0,0,1-11.45-.84L488.86,235c8.26,7.27,12.84,17,12.91,27.38a35.32,35.32,0,0,1-4.26,17h12.05c5.05,0,9.14,3.66,9.14,8.17s-4.09,8.17-9.14,8.17H482.22L512.64,371c.06.12.1.25.15.37l12.75,31.57A147.57,147.57,0,0,1,562,398.39c73.35,0,133,53.29,133,118.81S635.33,636,562,636,429,582.71,429,517.2c0-48.48,32.68-90.26,79.38-108.71l-8-19.87L357.4,511.36c-8.13,8.75-20.33,14.06-33.47,14.06a47.28,47.28,0,0,1-17.7-3.39,43.84,43.84,0,0,1-13-7.93H265.94c0,1,0,2.07,0,3.1C266,582.71,206.32,636,133,636S0,582.71,0,517.2,59.66,398.39,133,398.39ZM447.28,517.2c0,56.51,51.44,102.46,114.7,102.46S676.7,573.71,676.7,517.2,625.23,414.73,562,414.73a127.31,127.31,0,0,0-30.21,3.61l38.8,96.1c1.72,4.23-.73,8.91-5.5,10.44a9.78,9.78,0,0,1-3.09.49,9.13,9.13,0,0,1-8.6-5.4l-38.8-96.08C474.91,440,447.28,475.79,447.28,517.2ZM344.39,350.89,274.3,339.15l37,77.76ZM429,63.23c0-25.85-23.55-46.89-52.49-46.89S324,37.38,324,63.23s23.54,46.86,52.47,46.86S429,89.07,429,63.23Zm35.94,237.68a48.35,48.35,0,0,1-6.28.45,47.5,47.5,0,0,1-17.58-3.17,39.51,39.51,0,0,1,4,5.62,34.93,34.93,0,0,1,1.14,33.84L380.44,468.9l113.1-97.11Zm-118,194.87L429.53,331a20.31,20.31,0,0,0-.66-19.59,25.07,25.07,0,0,0-17.68-11.66l-102.6-17.16A9,9,0,0,1,302,278a7.38,7.38,0,0,1,.24-7.42l36.4-59.18-21.61-19.09a7.56,7.56,0,0,1-.07-11.55,10,10,0,0,1,12.93-.06l26.48,23.39.05,0,4.85,4.29,26.47,23.37.2.19,52.67,46.55a26.61,26.61,0,0,0,17.7,6.48h.19a26.32,26.32,0,0,0,17.67-6.68,20.77,20.77,0,0,0-.19-31.76L335.69,122.64a27,27,0,0,0-21.62-6.23,25.33,25.33,0,0,0-18.41,11.87L206.85,281.79a20.47,20.47,0,0,0-.26,20.19c3.47,6.34,10.19,10.91,18,12.23l134.61,22.53a9.05,9.05,0,0,1,6.4,4.23,7.3,7.3,0,0,1,.24,7.13L301,477.44a20.14,20.14,0,0,0-.52,17.19,23.48,23.48,0,0,0,13.24,12.49C325.93,512,341.43,506.74,346.94,495.78Zm5.26-272.41-27.82,45.21,90.2,15.1a46.7,46.7,0,0,1,8.31,2.15ZM282.35,497.76a34.68,34.68,0,0,1,2-27l16.81-33.53-23-48.33-50.4,45c18.81,17.07,31.9,39.19,36.46,63.85ZM133,619.66c63.26,0,114.7-45.95,114.7-102.46S196.25,414.73,133,414.73s-114.7,46-114.7,102.47S69.74,619.66,133,619.66Z"/><path class="cls-1" d="M101,509.08h47.18l-41.65-58c-2.74-3.78-1.5-8.85,2.76-11.27s9.91-1.34,12.62,2.47l50.71,70.6a7.41,7.41,0,0,1,.33,8.32,9.38,9.38,0,0,1-8,4.26h-47.2l41.68,58.05c2.74,3.79,1.5,8.85-2.76,11.28a10,10,0,0,1-4.93,1.29,9.42,9.42,0,0,1-7.7-3.76l-50.7-70.63a7.43,7.43,0,0,1-.34-8.32A9.41,9.41,0,0,1,101,509.08Z"/></g></g></svg>