<svg xmlns="http://www.w3.org/2000/svg" viewBox="0 0 365.71 236.65"><defs>
<style>.cls-1{fill:#fff;fill-rule:evenodd;}
 #jalan {
            stroke-dasharray: 800;
            stroke-dashoffset: 0;
            -webkit-animation: dash 4s linear forwards;
            -o-animation: dash 4s linear forwards;
            -moz-animation: dash 4s linear forwards;
            animation: dash 4s linear forwards;
        }

        @-webkit-keyframes dash {
            from {
                stroke-dashoffset: 800;
            }
            to {
                stroke-dashoffset: 0;
            }
        }
</style></defs><title>Asset 1</title><g id="Layer_2" data-name="Layer 2"><g id="_ÎÓÈ_1" data-name="—ÎÓÈ_1"><path id="jalan" class="cls-1" d="M205.33,114.26h25.39a2.32,2.32,0,0,1,1.15,4.31l-70.6,49.27a2.3,2.3,0,0,1-3.09-3.35l32.31-39.38h-25.4a2.32,2.32,0,0,1-1.16-4.3l70.61-49.27a2.3,2.3,0,0,1,3.09,3.34l-32.3,39.38Zm-61.4-95.32H103.36a6.92,6.92,0,0,0-6.92,6.92c0,7.55,11.42,12.94,22.29,12.94l5.52,20.62L75.49,143.89a22.18,22.18,0,0,0-4.79-.52,22.58,22.58,0,1,0,21.5,29.5h35A56.87,56.87,0,1,1,70.7,109.08a58.19,58.19,0,0,1,7.47.47A6.89,6.89,0,1,0,80,95.88a71.39,71.39,0,0,0-9.25-.63,70.68,70.68,0,1,0,66.78,94,32.35,32.35,0,0,0,53.75-14.91,6.91,6.91,0,0,0-13.35-3.57A18.55,18.55,0,1,1,155.14,148a6.89,6.89,0,0,0,4.89-8.45L140.15,65.36H249.52l12,44.51a240.33,240.33,0,0,0,13.17,36.64c4.54,9.78,9.81,18.67,15.47,24.33a6.92,6.92,0,0,0,9.78-9.78c-4.44-4.44-8.81-11.93-12.71-20.33a221.74,221.74,0,0,1-10.69-28.57,56.86,56.86,0,1,1-23.34,15.27A6.9,6.9,0,0,0,243,118.08a70.68,70.68,0,1,0,52-22.83,71.48,71.48,0,0,0-22.18,3.59l-18.28-68.1,12.09-3.24a21.36,21.36,0,0,0,15.8-20.58,6.92,6.92,0,1,0-13.83,0,7.45,7.45,0,0,1-5.54,7.23l-18.77,5a6.9,6.9,0,0,0-4.89,8.46l6.41,23.89H136.44l-5-18.75h12.51a6.92,6.92,0,0,0,0-13.84ZM129.3,78.24l15.79,59a32.41,32.41,0,0,0-7.64,5.49,71,71,0,0,0-25.61-34.21L129.3,78.24Zm-24.4,42.25A56.72,56.72,0,0,1,127.15,159h-35a22.58,22.58,0,0,0-4.78-8.23l17.49-30.31ZM70.7,157.21A8.75,8.75,0,1,1,62,166,8.7,8.7,0,0,1,70.7,157.21Z"/></g></g></svg>