<svg xmlns="http://www.w3.org/2000/svg" viewBox="0 0 191.27 130.61"><defs><style>.cls-1{fill:#fff;}</style></defs><title>Asset 2</title><g id="Layer_2" data-name="Layer 2"><g id="elements"><path class="cls-1" d="M61.51,66.91a33,33,0,0,1,15.22,3.71,14.33,14.33,0,0,1-3.1-3.41,16.26,16.26,0,0,1,2.25-22.54l19-20,.21-.2a17.34,17.34,0,0,1,16-3.29,18,18,0,0,1-.23-2.87,18.7,18.7,0,0,1,37.4,0,18.53,18.53,0,0,1-18.7,18.31,17,17,0,0,1-1.9-.1l3.44,4.1a9.43,9.43,0,0,0,6.24,3.27l17.32,3a7.47,7.47,0,0,1,6.71,7.37v4.91a2.63,2.63,0,0,1-2.65,2.6h-16l3.82,7.44a33,33,0,0,1,12.2-2.34c17.94,0,32.53,14.29,32.53,31.85s-14.59,31.85-32.53,31.85-32.53-14.29-32.53-31.85a31.72,31.72,0,0,1,15.6-27.18l-.59-1.14H118.28l2.43,2.68a11,11,0,0,1,1,14.26l-16,28.82a2.82,2.82,0,0,1-.21.31,9.54,9.54,0,0,1-7.64,3.78,10,10,0,0,1-5.2-1.48,9.43,9.43,0,0,1-3.38-3.53,32.71,32.71,0,0,1-27.81,15.33C43.58,130.61,29,116.32,29,98.76s14.6-31.85,32.53-31.85m70,31.85c0,14.7,12.21,26.66,27.23,26.66S186,113.46,186,98.76,173.76,72.1,158.74,72.1a27.51,27.51,0,0,0-9.81,1.8l12.18,23.7a2.58,2.58,0,0,1-1.18,3.48,2.71,2.71,0,0,1-3.56-1.15L144.2,76.23a26.55,26.55,0,0,0-12.69,22.53M93.86,95.38l5.19-12.46L83.38,74.57c-.53-.22-1.13-.5-1.77-.83A31.69,31.69,0,0,1,93.86,95.38m35.72-64A13.27,13.27,0,0,0,143,18.3a13.4,13.4,0,0,0-26.8,0,12.86,12.86,0,0,0,2.28,7.32c.29.29.56.59.82.9l1.1,1.31a13.54,13.54,0,0,0,9.2,3.59m9,33.83-1.77-3.44h-4.9a15.42,15.42,0,0,1-11.53-5.15L112,47.18l-7.55,8,9.16,10.06Zm-43,49.22a4.32,4.32,0,0,0,5.59-.93l16-28.78a2.36,2.36,0,0,1,.2-.31,5.94,5.94,0,0,0-.55-7.82l-18-19.75a2.54,2.54,0,0,1,0-3.48l11.19-11.86a2.87,2.87,0,0,1,2-.84,2.65,2.65,0,0,1,2,.9l10.35,11.66a10.05,10.05,0,0,0,7.53,3.36h24.2V54.3a2.3,2.3,0,0,0-2.18-2.24L136.59,49a14.6,14.6,0,0,1-9.56-5.1L116.48,31.34a18.33,18.33,0,0,1-2.1-2.39,11.86,11.86,0,0,0-15.7-.64l-19,20a2.09,2.09,0,0,1-.22.2A11.19,11.19,0,0,0,77.9,64.15a1.85,1.85,0,0,1,.19.27c1.15,1.88,4,3.92,7.52,5.45l.2.09,16.06,8.55A4.55,4.55,0,0,1,104.22,81a4.33,4.33,0,0,1-.07,3.41l-10.3,24.7a4.19,4.19,0,0,0,1.75,5.36m-34.09,11c15,0,27.23-12,27.23-26.66S76.53,72.1,61.51,72.1s-27.23,12-27.23,26.66,12.22,26.66,27.23,26.66"/><path class="cls-1" d="M53.84,96.17h10L56.56,83.4a2.57,2.57,0,0,1,1-3.53,2.69,2.69,0,0,1,3.6,1L70.62,97.5a2.56,2.56,0,0,1,0,2.58,2.67,2.67,0,0,1-2.29,1.27H58.35l7.24,12.77a2.57,2.57,0,0,1-1,3.53,2.7,2.7,0,0,1-1.28.32A2.66,2.66,0,0,1,61,116.64L51.53,100a2.54,2.54,0,0,1,0-2.58,2.67,2.67,0,0,1,2.28-1.27"/><path class="cls-1" d="M65.66,16.4h-63a2.59,2.59,0,1,1,0-5.18h63a2.59,2.59,0,1,1,0,5.18"/><path class="cls-1" d="M18.46,28.84H62.6a2.59,2.59,0,1,1,0,5.18H18.46a2.59,2.59,0,1,1,0-5.18"/><path class="cls-1" d="M30.93,47.76H63.3c1.08,0,2,1.16,2,2.59s-.87,2.6-2,2.6H30.93C29.85,53,29,51.79,29,50.35s.87-2.59,1.95-2.59"/></g></g></svg>