<svg xmlns="http://www.w3.org/2000/svg" viewBox="0 0 784.4 239.33"><defs><style>.cls-1{fill:#333;}</style></defs><title>Asset 3</title><g id="Layer_2" data-name="Layer 2"><g id="_ÎÓÈ_1" data-name="—ÎÓÈ_1"><g id="layer1"><g id="g2861"><g id="g2500"><path id="path2423" class="cls-1" d="M33.3,184a2.75,2.75,0,0,0-1.73.65l-.17.16,0,0,0,.05a2.73,2.73,0,0,0-.71,2.33v48.9a2.74,2.74,0,0,0,.73,2.36l.09.09a2.74,2.74,0,0,0,2.33.75H64.28a27.65,27.65,0,1,0,0-55.29H33.76a2.38,2.38,0,0,0-.46,0Zm2.78,5.5h28.2a22.18,22.18,0,1,1,0,44.35H36.08Z"/><g id="g2494"><path id="path2425" class="cls-1" d="M2.77,195.48a2.73,2.73,0,1,0-.07,5.46H32.55a2.73,2.73,0,0,0,.08-5.46H2.77Z"/><path id="path2427" class="cls-1" d="M2.77,222.35a2.74,2.74,0,0,0-.07,5.47H32.55a2.74,2.74,0,0,0,.08-5.47H2.77Z"/></g></g><path id="path2457" class="cls-1" d="M517.37,208.91a2.74,2.74,0,1,0-.1,5.47H784.4v-5.47Z"/><path id="path2459" class="cls-1" d="M90.13,208.91a2.74,2.74,0,0,0-.07,5.47H240.15a2.74,2.74,0,0,0,.08-5.47H90.13Z"/><path id="path2463" class="cls-1" d="M292.21,208.91v5.47h173.1v-5.47Z"/></g><g id="g2836"><path id="path2756" class="cls-1" d="M284.76,147.34a2.74,2.74,0,0,0-.07,5.47h77.62a2.74,2.74,0,1,0,.08-5.47H284.76Z"/><path id="ellipse2758" class="cls-1" d="M383.33,129a21,21,0,1,0,21,21A21.07,21.07,0,0,0,383.33,129Zm0,5.47a15.57,15.57,0,1,1-15.55,15.57A15.52,15.52,0,0,1,383.33,134.51Z"/><path id="path2760" class="cls-1" d="M338.93,27.52a2.7,2.7,0,0,0-2.64,3.66l37.84,102c1.22,3.51,6.49,1.56,5.12-1.9l-37.83-102A2.66,2.66,0,0,0,338.93,27.52Z"/><path id="path2762" class="cls-1" d="M325.64,9.07c-7,0-13,5.21-13,11.94s6,11.94,13,11.94h35.84c4.64,0,8.73-3.5,8.73-8.12s-4.09-8.12-8.73-8.12h-.21c-5.59.45-12.16-1.31-18.42-3.32S330.8,9.05,325.64,9.05Zm0,5.46c3.3,0,9.14,2,15.54,4.07s13.52,4.13,20.52,3.57h-.22c2,0,3.26,1.3,3.26,2.65s-1.26,2.65-3.26,2.65H325.64c-4.36,0-7.51-3-7.51-6.47s3.15-6.48,7.51-6.48Z"/><path id="path2764" class="cls-1" d="M443.64,0a2.74,2.74,0,0,0-2.84,2.63A2.8,2.8,0,0,0,441,3.7l48.27,133.85a2.73,2.73,0,1,0,5.17-1.77l0-.09L446.13,1.84A2.75,2.75,0,0,0,443.64,0Z"/><path id="path2766" class="cls-1" d="M412.11,0A2.74,2.74,0,0,0,412,5.51h31.52A2.74,2.74,0,1,0,443.63,0H412.11Z"/><path id="path2768" class="cls-1" d="M352.35,64.55a2.74,2.74,0,0,0-.08,5.47H466.54a2.74,2.74,0,0,0,.08-5.47H352.35Z"/><path id="path2770" class="cls-1" d="M352.27,64.52a2.72,2.72,0,0,0-1.87.85L278,139.48a2.74,2.74,0,0,0,3.86,3.89l.06-.07,72.37-74.11a2.74,2.74,0,0,0,0-3.87,2.77,2.77,0,0,0-2.05-.8Z"/><path id="path2772" class="cls-1" d="M464.11,64.52a2.68,2.68,0,0,0-1.86.85l-66.19,67.76a2.74,2.74,0,1,0,3.76,4L400,137l66.18-67.76a2.73,2.73,0,0,0-2-4.67Z"/><path id="path2774" class="cls-1" d="M271.49,83a67.07,67.07,0,0,0-27.13,128.37,2.73,2.73,0,1,0,2.32-4.95l-.1-.05a61.53,61.53,0,1,1,49.84,0,2.73,2.73,0,1,0,2.12,5l.09,0A67.06,67.06,0,0,0,271.49,83Z"/><path id="ellipse2776" class="cls-1" d="M496.65,135.62a14.46,14.46,0,1,0,14.44,14.46A14.49,14.49,0,0,0,496.65,135.62Zm0,5.47a9,9,0,1,1-9,9A8.94,8.94,0,0,1,496.65,141.09Z"/><path id="ellipse2778" class="cls-1" d="M271.49,135.62a14.46,14.46,0,1,0,14.45,14.46A14.49,14.49,0,0,0,271.49,135.62Zm0,5.47a9,9,0,1,1-9,9A8.94,8.94,0,0,1,271.49,141.09Z"/><path id="path2780" class="cls-1" d="M496.65,83a67.07,67.07,0,0,0-27.14,128.37,2.74,2.74,0,0,0,2.33-4.95l-.11-.05a61.53,61.53,0,1,1,49.84,0,2.74,2.74,0,1,0,2.22,5h0A67.07,67.07,0,0,0,496.65,83Z"/></g></g></g></g></svg>