
<svg version="1.1" id="Layer_1" xmlns="http://www.w3.org/2000/svg" xmlns:xlink="http://www.w3.org/1999/xlink" x="0px" y="0px"
	 viewBox="0 0 2415 2573" style="enable-background:new 0 0 2415 2573;" xml:space="preserve">

      #jalan {
            stroke-dasharray: 1070;
            stroke-dashoffset: 0;
            -webkit-animation: dash 10s linear infinite;
            -o-animation: dash 10s linear infinite;
            -moz-animation: dash 10s linear infinite;
            animation: dash 10s linear infinite;
        }

        @-webkit-keyframes dash {
            0, 100% {
                stroke-dashoffset: 0;
            }
            50% {
                stroke-dashoffset: 1070;
            }
        }
	<g stroke-width="10" stroke="hsl(0, 0%, 0%)" fill="none" stroke-linecap="round" stroke-linejoin="round" transform="matrix(1,0,0,1,-58,0)">
		<path id="jalan" d="M530.633,263.624c4.412,45.964,8.825,91.928,13.237,137.892c3.51,36.563,6.391,73.711,17.15,109.024
			c10.663,34.996,29.929,64.531,58.35,87.658c28.739,23.385,61.957,40.565,92.216,61.82
			c67.761,47.598,127.677,106.622,185.7,165.414c27.052,27.411,53.157,56.598,71.276,90.845
			c17.973,33.973,26.027,71.983,22.794,110.325c-3.168,37.574-16.912,73.839-39.823,103.805
			c-19.403,25.378-43.614,46.545-66.65,68.494c-21.44,20.428-42.99,41.975-57.143,68.296c-6.599,12.272-11.412,25.495-13.659,39.269
			c-1.175,7.2-0.403,8.18,4.249,13.812c5.846,7.078,11.868,14.012,18.024,20.823c46.855,51.835,101.007,96.292,150.353,145.63
			c48.659,48.651,96.107,105.057,115.8,172.325c9.954,34,12.776,72.715-2.339,105.687c-16.432,35.846-51.668,54.533-87.144,67.268
			c-80.901,29.041-165.468,50.285-249.428,68.315c-20.681,4.441-41.422,8.588-62.212,12.481c-1.895,0.355-1.093,3.247,0.798,2.893
			c87.846-16.452,174.747-37.805,260.166-64.105c35.298-10.868,73.437-20.715,103.964-42.393
			c26.788-19.023,42.707-47.243,46.422-79.77c7.777-68.108-29.9-134.532-70.711-185.969
			c-43.723-55.107-97.85-100.658-148.671-148.903c-25.532-24.239-50.462-49.234-72.9-76.402c-3.717-4.501-4.212-6.963-3.108-13.037
			c0.64-3.521,1.447-7.013,2.41-10.46c2.236-8.006,5.333-15.75,9.107-23.152c7.099-13.923,16.461-26.57,26.719-38.312
			c42.129-48.22,98.634-84.193,123.963-145.321c13.756-33.198,18.55-70.097,13.683-105.705
			c-4.924-36.024-20.388-69.066-41.424-98.452c-22.014-30.753-49.075-57.412-75.985-83.817
			c-30.026-29.463-60.2-58.817-91.915-86.475c-30.765-26.83-63.032-51.913-97.505-73.82c-32.325-20.542-66.951-39.657-91.609-69.718
			c-24.906-30.364-35.39-69.227-41.128-107.358c-6.471-43.005-9.256-86.688-13.41-129.961c-2.206-22.982-4.412-45.964-6.618-68.946
			C533.45,261.719,530.448,261.7,530.633,263.624L530.633,263.624z"/>
	</g>
</svg>
