<svg xmlns="http://www.w3.org/2000/svg" xmlns:se="http://svg-edit.googlecode.com" xmlns:xlink="http://www.w3.org/1999/xlink" xmlns:dc="http://purl.org/dc/elements/1.1/" xmlns:cc="http://creativecommons.org/ns#" xmlns:rdf="http://www.w3.org/1999/02/22-rdf-syntax-ns#" xmlns:inkscape="http://www.inkscape.org/namespaces/inkscape" width="777" height="480" style="">                                    <title>my vector image</title>                                    <!-- Created with Vector Paint - http://www.vectorpaint.yaks.com/ https://chrome.google.com/webstore/detail/hnbpdiengicdefcjecjbnjnoifekhgdo -->                                    <rect id="backgroundrect" width="100%" height="100%" x="0" y="0" fill="#FFFFFF" stroke="none"/>                                <g class="currentLayer" style=""><title>Layer 1</title><polyline fill="none" stroke="#222222" stroke-width="2" stroke-linejoin="round" stroke-dashoffset="" fill-rule="nonzero" marker-start="" marker-mid="" marker-end="" id="svg_1" points="235.79685289986259,33.13088792442406 236.32041308575918,33.13088792442406 247.31517698958737,43.60209164235566 248.3622973613805,44.125651828252245 249.93297791907025,46.21989257183857 251.50365847676,48.31413331542488 252.0272186626566,48.83769350132147 253.07433903444974,50.931934244907794 253.59789922034633,51.97905461670095 254.12145940624288,53.026174988494105 254.64501959213948,53.54973517439069 255.16857977803608,55.12041573208043 255.16857977803608,56.69109628977017 255.69213996393262,58.26177684745991 255.69213996393262,59.832457405149654 255.69213996393262,60.35601759104624 255.69213996393262,62.450258334632565 255.69213996393262,63.49737870642572 255.69213996393262,65.06805926411546 255.16857977803608,67.16230000770179 254.64501959213948,68.20942037949494 254.12145940624288,69.78010093718468 253.07433903444974,71.35078149487443 251.50365847676,73.96858242435734 250.45653810496685,75.53926298204708 249.40941773317365,77.10994353973682 248.3622973613805,78.68062409742656 247.31517698958737,80.2513046551163 246.26805661779417,81.82198521280604 245.22093624600103,83.39266577049578 243.6502556883113,84.43978614228894 242.60313531651815,86.01046669997868 241.55601494472495,88.104707443565 240.5088945729318,89.15182781535816 239.9853343870352,90.19894818715133 239.46177420113867,91.24606855894449 238.93821401524207,92.81674911663423 238.41465382934547,94.38742967432397 238.41465382934547,95.95811023201371 237.89109364344893,98.05235097560004 237.89109364344893,99.09947134739319 237.89109364344893,100.67015190508293 237.89109364344893,102.76439264866926 237.89109364344893,104.335073206359 237.89109364344893,106.9528741358419 237.89109364344893,108.52355469353164 237.89109364344893,110.61779543711796 237.89109364344893,112.18847599480772 238.93821401524207,114.28271673839403 238.93821401524207,116.37695748198034 239.9853343870352,117.94763803967008 239.9853343870352,118.99475841146325 240.5088945729318,121.08899915504956 241.0324547588284,121.61255934094616 241.0324547588284,123.1832398986359 241.55601494472495,124.75392045632564 242.60313531651815,126.32460101401539 243.1266955024147,128.4188417576017 243.6502556883113,129.98952231529145 244.1738158742079,131.5602028729812 245.22093624600103,133.65444361656753 245.74449643189763,135.74868436015385 246.79161680369077,137.84292510374016 248.3622973613805,140.46072603322307 249.93297791907025,143.07852696270595 251.50365847676,145.17276770629232 253.07433903444974,147.26700844987863 254.64501959213948,149.36124919346491 257.26282052162236,151.97905012294783 259.8806214511053,154.07329086653417 261.45130200879504,156.16753161012048 265.11622331007106,158.7853325396034 267.2104640536574,160.8795732831897 270.8753853549335,162.97381402677604 274.01674647031297,165.59161495625892 277.681667771589,167.16229551394866 281.87014925876167,169.78009644343157 285.53507056003775,171.8743371870179 289.7235520472104,173.96857793060423 293.912033534383,177.1099390459837 296.52983446386594,178.68061960367345 300.19475576514196,180.77486034725976 304.38323725231464,182.86910109084607 305.9539178100044,183.91622146263924 309.09527892538387,184.9633418344324 312.7602002266599,186.53402239212215 315.37800115614283,188.1047029498119 318.5193622715223,189.67538350750164 323.23140394459153,192.29318443698455 326.89632524586756,194.38742518057086 333.1790474766265,197.52878629595034 337.8910891496958,200.14658722543325 339.46176970738554,200.67014741132982 343.12669100866157,202.24082796901956 345.2209317522479,203.28794834081273 347.31517249583425,204.85862889850247 350.45653361121373,205.90574927029562 352.5507743548,206.42930945619221 355.6921354701795,207.47642982798536 358.30993639966243,208.52355019977853 360.4041771432487,209.0471103856751 362.49841788683506,210.09423075746827 364.5926586304214,211.14135112926144 368.781140117594,212.1884715010546 373.49318179066324,214.28271224464092 380.2994642073188,215.85339280233066 387.1057466239743,217.4240733600204 394.4355892265265,218.99475391771014 400.19475127138884,220.0418742895033 408.04815405983754,220.56543447539988 417.9957975918726,221.61255484719305 427.41988093801103,221.61255484719305 433.70260316877,221.08899466129645 438.4146448418392,218.99475391771014 443.65024670080504,216.37695298822723 446.7916078161845,213.75915205874435 450.4565291174606,210.61779094336484 452.55076986104694,207.99999001388196 455.16857079052977,204.33506871260587 456.7392513482195,200.67014741132982 458.30993190590925,197.52878629595034 459.88061246359905,194.38742518057086 460.92773283539213,192.29318443698455 463.54553376487513,189.15182332160506 465.1162143225649,187.58114276391532 468.2575754379443,184.9633418344324 469.8282559956341,183.39266127674267 473.4931772969102,182.3455409049495 477.15809859818614,181.82198071905293 480.8230198994622,181.29842053315633 484.4879412007383,181.29842053315633 489.1999828738076,181.29842053315633 498.62406621994603,183.39266127674267 505.4303486366015,186.01046220622558 511.71307086736044,189.15182332160506 521.1371542134989,192.81674462288112 530.0376773737408,198.0523464818469 538.9382005339827,203.8115085267093 545.7444829506383,207.99999001388196 550.4565246237074,212.71203168695118 554.6450061108801,216.37695298822723 557.7863672262597,220.0418742895033 559.8806079698459,223.70679559077936 560.9277283416391,227.37171689205542 560.9277283416391,230.5130780074349 560.9277283416391,235.22511968050412 560.9277283416391,238.36648079588363 560.9277283416391,244.12564284074602 559.8806079698459,247.79056414202205 557.7863672262597,252.50260581509127 556.2156866685698,257.2146474881605 554.1214459249835,261.4031289753332 552.0272051813972,266.1151706484024 547.8387236942245,272.9214530650579 544.6973625788451,276.586374366334 541.5560014634656,280.25129566761007 536.8439597903964,284.9633373406793 533.1790384891203,288.10469845605877 526.8963162583614,292.816740129128 521.1371542134989,295.9581012445075 514.8544319827399,298.57590217399036 507.0010291942913,301.1937031034733 499.6711865917391,302.76438366116304 492.34134398918707,303.8115040329562 483.4408208289451,303.8115040329562 469.3046958097375,303.8115040329562 456.7392513482195,303.2879438470596 440.50888558542556,300.6701429175767 426.89632075211443,298.57590217399036 409.09527443163074,296.4816614304041 399.6711910854923,295.4345410586108 383.4408253226983,293.86386050092113 362.49841788683506,292.2931799432314 348.3622928676274,291.76961975733485 335.27328822021286,291.2460595714382 321.1371632010052,291.2460595714382 312.7602002266599,291.2460595714382 298.6240752074522,292.2931799432314 290.7706724190035,293.3403003150246 281.87014925876167,295.4345410586108 276.63454739979585,297.0052216163006 272.4460659126232,299.62302254578356 266.16334368186426,302.76438366116304 261.9748621946916,305.3821845906459 255.69213996393262,309.57066607781854 252.0272186626566,312.1884670073015 246.79161680369077,316.3769484944741 242.60313531651815,320.0418697957502 238.41465382934547,324.7539114688194 236.32041308575918,327.3717123983023 233.1790519703797,331.5601938854749 231.08481122679336,335.225115186751 229.51413066910362,338.8900364880271 227.94345011141388,342.03139760340656 226.89632973962068,345.69631890468264 226.37276955372414,348.3141198341655 225.84920936782754,350.40836057775186 225.84920936782754,352.50260132133815 226.37276955372414,355.1204022508211 227.41988992551728,356.6910828085108 228.46701029731048,357.73820318030397 230.03769085500022,359.3088837379937 231.08481122679336,360.87956429568345 232.6554917844831,361.40312448158005 233.70261215627625,362.4502448533732 235.273292713966,363.49736522516633 237.36753345755233,364.02092541106293 238.41465382934547,364.54448559695953 240.5088945729318,365.0680457828561 243.6502556883113,366.1151661546493 246.26805661779417,367.1622865264424 250.9800982908634,368.73296708413216 254.12145940624288,369.2565272700288 260.92774182289844,371.35076801361504 262.4984223805882,371.35076801361504 265.11622331007106,371.35076801361504 268.25758442545055,371.87432819951164 272.4460659126232,372.9214485713048 276.63454739979585,373.4450087572014 280.29946870107193,373.4450087572014 285.01151037414115,373.968568943098 290.247112233107,373.968568943098 296.00627427796934,375.0156893148911 300.71831595103856,375.0156893148911 307.0010381817975,375.5392495007877 313.8073205984531,375.5392495007877 320.090042829212,376.06280968668426 325.3256446881778,376.58636987258086 330.03768636124704,377.10993005847746 336.84396877790255,377.633490244374 344.17381138045477,378.1570504302706 354.12145491248975,379.20417080206374 361.4512975150419,380.25129117385694 371.3989410470769,381.2984115456501 378.20522346373247,381.82197173154674 385.53506606628457,382.8690921033398 395.4827095983196,383.91621247513297 403.3361123867683,384.96333284692616 409.6188346175273,386.0104532187193 416.94867722007945,387.0575735905125 421.13715870725207,388.10469396230565 425.3256401944247,388.62825414820225 429.5141216815974,390.19893470589193 435.27328372645974,391.2460550776851 440.50888558542556,392.29317544947827 447.3151680020811,393.863856007168 453.0743300469435,394.38741619306467 458.30993190590925,395.43453656485775 464.0690939507716,396.48165693665095 469.3046958097375,397.0052171225475 473.4931772969102,397.5287773084441 477.6816587840827,398.0523374943407 481.8701402712554,398.5758976802373 488.676422687911,399.62301805203043 494.43558473277335,400.6701384238236 501.7654273353255,402.2408189815133 507.0010291942913,403.28793935330646 510.66595049556736,403.81149953920306 515.3779921686365,404.8586199109962 520.6135940276024,406.42930046868594 523.7549551429819,406.9528606545825 530.0376773737408,407.47642084047914 537.3675199762929,408.5235412122723 543.6502422070519,409.5706615840654 553.0743255531903,410.6177819558586 560.4041681557425,411.1413421417552 569.3046913159843,411.1413421417552 576.6345339185365,411.1413421417552 583.440816335192,411.1413421417552 591.8177793095373,411.1413421417552 597.5769413543997,411.1413421417552 607.0010247005381,410.6177819558586 613.8073071171937,410.094221769962 619.566469162056,410.094221769962 627.4198719505048,410.094221769962 633.179033995367,410.094221769962 638.9381960402295,410.094221769962 643.6502377132988,410.094221769962 650.4565201299544,410.094221769962 657.2628025466099,410.6177819558586 664.592645149162,412.7120226994449 669.3046868222314,414.28270325713464 672.4460479376107,416.376944000721 674.540288681197,417.9476245584107 677.1580896106799,420.5654254878936 679.7758905401628,423.18322641737655 681.3465710978526,425.27746716096283 683.4408118414389,428.9423884622389 684.487932213232,430.51306901992865 685.5350525850253,433.13086994941153 687.1057331427149,434.7015505071013 687.6292933286115,436.7957912506876 688.1528535145081,437.84291162248076 688.6764137004047,438.89003199427395 688.6764137004047,439.41359218017055 689.1999738863013,439.9371523660671 689.7235340721978,440.4607125519637 689.7235340721978,440.9842727378603 690.2470942580944,441.50783292375684 690.2470942580944,442.03139310965344 690.770654443991,443.0785134814466 691.2942146298876,443.6020736673432 692.3413350016808,444.6491940391363 692.8648951875773,446.21987459682606 693.9120155593705,447.7905551545158 693.9120155593705,449.36123571220554 694.9591359311637,450.9319162698953 695.4826961170603,452.502596827585 696.0062563029568,453.5497171993782 696.5298164888534,454.59683757117136 697.05337667475,455.12039775706796 " style="color: rgb(0, 0, 0);"/></g></svg>